<?xml version="1.0" encoding="iso-8859-1"?>
<!-- Generator: Adobe Illustrator 19.0.0, SVG Export Plug-In . SVG Version: 6.00 Build 0)  -->
<svg version="1.1" id="Capa_1" xmlns="http://www.w3.org/2000/svg" xmlns:xlink="http://www.w3.org/1999/xlink" x="0px" y="0px"
	 viewBox="0 0 512.05 512.05" style="enable-background:new 0 0 512.05 512.05;" xml:space="preserve">
<path style="fill:#10BB67;" d="M156.725,478.475c-11.9,0-17.6-6.1-18-14.2c-0.1-1.9-2.5-47.3,25.4-75.1
	c27.9-27.9,73.2-25.5,75.1-25.4c6.6,0.4,12.1,5,13.7,11.4c1.2,5.1,1.2,10.7-1.6,15.1c-6.8,10.9-10.3,21.2-10.3,30.7
	c0,6.5,1.9,10.1-1.2,15.8c-2.8,5.2-6.5,10.3-11.5,15.7C204.525,476.375,168.725,478.475,156.725,478.475z"/>
<g>
	<circle style="fill:#FEDB41;" cx="436.125" cy="91.075" r="15"/>
	<circle style="fill:#FEDB41;" cx="75.925" cy="91.075" r="15"/>
	<path style="fill:#FEDB41;" d="M271.025,30.975c0,8.4-6.6,15-15,15s-15-6.6-15-15s6.6-15,15-15
		C264.425,15.975,271.025,22.575,271.025,30.975z"/>
	<path style="fill:#FEDB41;" d="M266.525,80.475c-2.7-2.7-6.6-4.2-10.5-4.2s-7.8,1.5-10.5,4.2c-2.4,2.1-56.4,57.3-63.9,129.6
		c-0.6,5.1,1.8,10.2,6,13.5c33.9,25.9,53.4,64.9,53.4,107.5c0,9.9,7.5,15,15,15s15-5.1,15-15c0-42.6,19.5-81.6,53.4-107.4
		c4.2-3.3,6.6-8.4,6-13.5C322.925,137.875,268.925,82.575,266.525,80.475z"/>
</g>
<path style="fill:#FCBF29;" d="M436.125,166.075c8.4,0,15,6.6,15,15v30c0,27-6,52.2-18.3,75c-3.3,6.6-11.1,9.6-18.3,7.2
	c-13.5-4.8-26.4-7.2-38.4-7.2c-58.8,0-108.3,54.3-108.9,54.9c-3,3.3-6.9,5.1-11.1,5.1c-3.9,0-8.1-1.8-11.1-5.1
	c-0.6-0.3-50.4-54.9-108.9-54.9c-12,0-24.9,2.4-38.4,7.2c-7.2,2.7-15-0.6-18.6-7.2c-12-23.7-18-48.9-18-75v-30c0-8.4,6.6-15,15-15
	h30c36.3,0,70.8,11.7,99.6,33.6c22.2,16.8,39.3,38.7,50.4,63c11.1-24.3,28.2-46.2,50.4-63c28.8-21.9,63.3-33.6,99.6-33.6H436.125
	L436.125,166.075z"/>
<path style="fill:#0CA656;" d="M355.225,478.475c-12,0-47.7-2.1-71.1-25.5c-5.4-5.8-9.2-10.9-11.9-16.1c-3-5.6-1.2-9.3-1.2-15.8
	c0-9.5-3.5-19.8-10.3-30.7c-5.8-9.2-1.4-25.7,12.1-26.6c1.9-0.1,47.3-2.5,75.1,25.4c27.9,27.8,25.5,73.2,25.4,75.1
	C372.825,472.475,367.125,478.475,355.225,478.475z"/>
<path style="fill:#32D736;" d="M286.025,374.275c-9-14.4-19.5-24-20.1-24.3c-2.7-2.7-6.3-3.9-9.9-3.9s-7.2,1.2-9.9,3.9
	c-0.6,0.3-11.1,9.9-20.1,24.3c-9.9,15.9-15,31.5-15,46.8c0,3.6,0.3,7.2,0.9,11.1c5.1,33.9,33,59.1,34.2,60c2.7,2.7,6.3,3.9,9.9,3.9
	c3.6,0,7.2-1.2,9.9-3.9c1.2-0.9,29.1-26.1,34.5-60.6c0.3-3.3,0.6-6.9,0.6-10.5C301.025,405.775,295.925,390.175,286.025,374.275z"/>
<path style="fill:#10BB67;" d="M301.025,421.075c0,3.6-0.3,7.2-0.6,10.5c-5.4,34.5-33.3,59.7-34.5,60.6c-2.7,2.7-6.3,3.9-9.9,3.9
	v-150c3.6,0,7.2,1.2,9.9,3.9c0.6,0.3,11.1,9.9,20.1,24.3C295.925,390.175,301.025,405.775,301.025,421.075z"/>
<path style="fill:#FEDB41;" d="M508.225,321.175c5.1,5.7,5.1,14.1,0,19.8c-2.4,2.7-59.8,65.1-132.1,65.1c-54.3,0-99.9-35.4-120-54
	c-20.1,18.6-65.7,54-120,54c-72.5,0-129.9-62.4-132.3-65.1c-5.1-5.7-5.1-14.1,0-19.8c31.5-35.4,85.4-65.1,132.2-65.1
	c54.3,0,99.9,35.4,120,54c20.1-18.6,65.7-54,120-54c15.6,0,31.8,3,48.6,9C472.725,282.775,507.025,319.675,508.225,321.175z"/>
<path style="fill:#FCBF29;" d="M330.425,210.175c0.6,5.1-1.8,10.2-6,13.5c-33.9,25.8-53.4,64.8-53.4,107.4c0,9.9-7.5,15-15,15
	v-269.8c3.9,0,7.8,1.5,10.5,4.2C268.925,82.575,322.925,137.875,330.425,210.175z"/>
<path style="fill:#FE9923;" d="M436.125,166.075c8.4,0,15,6.6,15,15v30c0,27-6,52.2-18.3,75c-3.3,6.6-11.1,9.6-18.3,7.2
	c-13.5-4.8-26.4-7.2-38.4-7.2c-58.8,0-108.3,54.3-108.9,54.9c-3,3.3-6.9,5.1-11.1,5.1v-83.4c11.1-24.3,28.2-46.2,50.4-63
	c28.8-21.9,63.3-33.6,99.6-33.6H436.125L436.125,166.075z"/>
<path style="fill:#FCBF29;" d="M508.225,321.175c5.1,5.7,5.1,14.1,0,19.8c-2.4,2.7-59.8,65.1-132.1,65.1c-54.3,0-99.9-35.4-120-54
	v-42c20.1-18.6,65.7-54,120-54c15.6,0,31.8,3,48.6,9C472.725,282.775,507.025,319.675,508.225,321.175z"/>
<g>
</g>
<g>
</g>
<g>
</g>
<g>
</g>
<g>
</g>
<g>
</g>
<g>
</g>
<g>
</g>
<g>
</g>
<g>
</g>
<g>
</g>
<g>
</g>
<g>
</g>
<g>
</g>
<g>
</g>
</svg>
