<?xml version="1.0" encoding="iso-8859-1"?>
<!-- Generator: Adobe Illustrator 19.0.0, SVG Export Plug-In . SVG Version: 6.00 Build 0)  -->
<svg version="1.1" id="Capa_1" xmlns="http://www.w3.org/2000/svg" xmlns:xlink="http://www.w3.org/1999/xlink" x="0px" y="0px"
	 viewBox="0 0 512 512" style="enable-background:new 0 0 512 512;" xml:space="preserve">
<path style="fill:#FEDB41;" d="M257,0C116.3,0,0,116.3,0,257s116.3,255,257,255s255-114.3,255-255S397.7,0,257,0z M302,302h-90v-90
	h90V302z"/>
<path style="fill:#FEA832;" d="M257,60C149.599,60,60,149.599,60,257c0,107.399,89.599,195,197,195s195-87.601,195-195
	C452,149.599,364.401,60,257,60z M302,302h-90v-90h90V302z"/>
<path style="fill:#FEDB41;" d="M317,182H197c-8.401,0-15,6.599-15,15v120c0,8.399,6.599,15,15,15h120c8.401,0,15-6.601,15-15V197
	C332,188.599,325.401,182,317,182z M302,302h-90v-90h90V302z"/>
<path style="fill:#FCBF29;" d="M512,257c0,140.7-114.3,255-255,255V302h45v-90h-45V0C397.7,0,512,116.3,512,257z"/>
<path style="fill:#FE9923;" d="M452,257c0,107.399-87.599,195-195,195V302h45v-90h-45V60C364.401,60,452,149.599,452,257z"/>
<path style="fill:#FCBF29;" d="M332,197v120c0,8.399-6.599,15-15,15h-60v-30h45v-90h-45v-30h60C325.401,182,332,188.599,332,197z"/>
<g>
</g>
<g>
</g>
<g>
</g>
<g>
</g>
<g>
</g>
<g>
</g>
<g>
</g>
<g>
</g>
<g>
</g>
<g>
</g>
<g>
</g>
<g>
</g>
<g>
</g>
<g>
</g>
<g>
</g>
</svg>
