<?xml version="1.0" encoding="iso-8859-1"?>
<!-- Generator: Adobe Illustrator 19.0.0, SVG Export Plug-In . SVG Version: 6.00 Build 0)  -->
<svg version="1.1" id="Capa_1" xmlns="http://www.w3.org/2000/svg" xmlns:xlink="http://www.w3.org/1999/xlink" x="0px" y="0px"
	 viewBox="0 0 512 512" style="enable-background:new 0 0 512 512;" xml:space="preserve">
<path style="fill:#FD003A;" d="M317.25,0c-5.099,0-9.901,2.399-12.9,6.599L248.849,90H83.101L27.599,6.599C24.6,2.399,19.799,0,15,0
	C6.301,0,0,6.899,0,15v482c0,8.399,6.899,15,15.3,15c3.6,0,7.5-1.5,10.199-4.501L81.301,452h169.348l55.801,55.499
	c2.699,3.001,6.599,4.501,10.499,4.501c8.101,0,15-6.601,15-15V15C331.949,6.599,325.05,0,317.25,0z"/>
<path style="fill:#E50027;" d="M331.949,15v482c0,8.399-6.899,15-15,15c-3.9,0-7.8-1.5-10.499-4.501L250.649,452H167.25V90h81.599
	L304.35,6.599c2.999-4.2,7.8-6.599,12.9-6.599C325.05,0,331.949,6.599,331.949,15z"/>
<path style="fill:#FEA832;" d="M167.25,197h-0.3c-49.501,0-90,40.499-90,90c0,49.499,40.499,90,90,90h0.3
	c49.499-0.3,89.7-40.501,89.7-90C256.949,237.499,216.749,197.3,167.25,197z M181.949,302h-30v-30h30V302z"/>
<path style="fill:#FE9923;" d="M256.949,287c0,49.499-40.201,89.7-89.7,90v-75h14.7v-30h-14.7v-75
	C216.749,197.3,256.949,237.499,256.949,287z"/>
<path style="fill:#FEDB41;" d="M317.25,0H15C6.301,0,0,6.899,0,15v4.499l62.401,93.9C65.4,117.599,69.901,120,75,120h181.949
	c5.099,0,9.6-2.401,12.599-6.601l62.401-93.9V15C331.949,6.599,325.05,0,317.25,0z"/>
<path style="fill:#FEA832;" d="M466.949,302h-150c-59.399,0-59.399,90,0,90h150C526.349,392,526.349,302,466.949,302z"/>
<g>
	<path style="fill:#B7E0F6;" d="M496.949,210h-15v-15c0-19.773-30-19.854-30,0v15h-15c-19.773,0-19.854,30,0,30h15v15
		c0,19.773,30,19.854,30,0v-15h15C516.723,240,516.804,210,496.949,210z"/>
	<path style="fill:#B7E0F6;" d="M436.949,150h-15v15c0,19.799-30,19.799-30,0v-15h-15c-19.799,0-19.799-30,0-30h15v-15
		c0-19.801,30-19.801,30,0v15h15C456.749,120,456.749,150,436.949,150z"/>
</g>
<g>
	<circle style="fill:#FCBF29;" cx="376.95" cy="257" r="15"/>
	<circle style="fill:#FCBF29;" cx="496.95" cy="75" r="15"/>
</g>
<g>
	<path style="fill:#FEDB41;" d="M196.949,242h-60c-8.401,0-15,6.599-15,15v60c0,8.399,6.599,15,15,15h60c8.401,0,15-6.601,15-15v-60
		C211.949,248.599,205.35,242,196.949,242z M181.949,302h-30v-30h30V302z"/>
	<path style="fill:#FEDB41;" d="M167.25,182h-0.3c-57.9,0-105,47.1-105,105s47.1,105,105,105h0.3c57.9-0.3,104.7-47.1,104.7-105
		S225.149,182.3,167.25,182z M167.25,362h-0.3c-41.4,0-75-33.6-75-75s33.6-75,75-75h0.3c41.4,0.3,74.7,33.6,74.7,75
		S208.65,361.7,167.25,362z"/>
</g>
<g>
	<path style="fill:#FCBF29;" d="M211.949,257v60c0,8.399-6.599,15-15,15h-29.7v-30h14.7v-30h-14.7v-30h29.7
		C205.35,242,211.949,248.599,211.949,257z"/>
	<path style="fill:#FCBF29;" d="M331.949,15v4.499l-62.401,93.9c-2.999,4.2-7.5,6.601-12.599,6.601h-89.7V0h150
		C325.05,0,331.949,6.599,331.949,15z"/>
</g>
<path style="fill:#FEDB41;" d="M267.449,426.499c-2.699-2.999-6.599-4.499-10.5-4.499H75c-3.9,0-7.8,1.5-10.499,4.499L0,490.699V497
	c0,8.399,6.899,15,15.3,15h301.649c8.101,0,15-6.601,15-15v-6.301L267.449,426.499z"/>
<path style="fill:#FCBF29;" d="M267.449,426.499l64.501,64.2V497c0,8.399-6.899,15-15,15h-149.7v-90h89.7
	C260.85,422,264.75,423.5,267.449,426.499z"/>
<path style="fill:#B7E0F6;" d="M391.949,165v-60c0-19.801,30-19.801,30,0v15h15c19.799,0,19.799,30,0,30h-15v15
	C421.949,184.799,391.949,184.799,391.949,165z"/>
<path style="fill:#FE9923;" d="M466.949,392h-75v-90h75C526.349,302,526.349,392,466.949,392z"/>
<path style="fill:#FEA832;" d="M500.549,436.399c-7.5-8.699-18.6-14.399-33.6-14.399h-150c-15,0-26.1,5.7-33.6,14.399
	C261.45,461.6,272.55,512,316.949,512h150C511.349,512,522.449,461.6,500.549,436.399z"/>
<path style="fill:#FE9923;" d="M466.949,512h-75v-90h75c15,0,26.1,5.7,33.6,14.399C522.449,461.6,511.349,512,466.949,512z"/>
<path style="fill:#FCBF29;" d="M271.949,287c0,57.9-46.8,104.7-104.7,105v-30c41.4-0.3,74.7-33.6,74.7-75s-33.3-74.7-74.7-75v-30
	C225.149,182.3,271.949,229.1,271.949,287z"/>
<path style="fill:#FEDB41;" d="M499.35,375.799l-1.5,0.3H284.549c-7.8,8.101-12.599,18.9-12.599,30.901
	c0,11.4,4.2,21.599,11.4,29.399c0.3,0.601,0.899,0.901,1.199,1.5H499.35c0.599-0.599,0.899-0.899,1.199-1.5
	C516.45,418.7,515.549,392.3,499.35,375.799z"/>
<path style="fill:#FCBF29;" d="M500.549,436.399c-0.3,0.601-0.601,0.901-1.199,1.5H391.949v-61.8H497.85l1.5-0.3
	C515.549,392.3,516.45,418.7,500.549,436.399z"/>
<g>
</g>
<g>
</g>
<g>
</g>
<g>
</g>
<g>
</g>
<g>
</g>
<g>
</g>
<g>
</g>
<g>
</g>
<g>
</g>
<g>
</g>
<g>
</g>
<g>
</g>
<g>
</g>
<g>
</g>
</svg>
