<?xml version="1.0" encoding="iso-8859-1"?>
<!-- Generator: Adobe Illustrator 19.0.0, SVG Export Plug-In . SVG Version: 6.00 Build 0)  -->
<svg version="1.1" id="Capa_1" xmlns="http://www.w3.org/2000/svg" xmlns:xlink="http://www.w3.org/1999/xlink" x="0px" y="0px"
	 viewBox="0 0 511.999 511.999" style="enable-background:new 0 0 511.999 511.999;" xml:space="preserve">
<g>
	<path style="fill:#FD003A;" d="M194.999,331.98c-3.838,0-7.676-1.465-10.605-4.395l-30-30c-5.859-5.859-5.859-15.352,0-21.211
		s15.352-5.859,21.211,0l30,30c5.859,5.859,5.859,15.352,0,21.211C202.675,330.516,198.837,331.98,194.999,331.98z"/>
	<path style="fill:#FD003A;" d="M14.999,331.98c-3.838,0-7.676-1.465-10.605-4.395c-5.859-5.859-5.859-15.352,0-21.211l30-30
		c5.859-5.859,15.352-5.859,21.211,0s5.859,15.352,0,21.211l-30,30C22.675,330.516,18.837,331.98,14.999,331.98z"/>
</g>
<path style="fill:#FE9923;" d="M424.998,81.608c-38.099-30.899-94.199-37.5-171.299-20.999c-6.601,1.5-11.4,7.5-11.7,14.399
	s4.501,12.9,11.1,14.7c84,22.5,83.401,42.001,80.099,115.201c-0.599,15-1.199,31.5-1.199,50.4l32.1-12.601
	c5.099-18.6,22.5-32.399,42.9-32.399s37.8,13.799,42.9,32.399l32.1,12.601C481.999,195.908,475.4,122.41,424.998,81.608z"/>
<path style="fill:#E50027;" d="M258.899,422.579c-84-22.5-83.401-41.999-80.099-115.199c0.599-15,1.199-31.5,1.199-50.4l-31.199,9.6
	c-4.2,20.4-22.202,35.4-43.801,35.4c-20.7,0-38.101-13.801-42.9-32.701l-32.1-12.299c0,59.399,6.599,132.9,57.001,173.699
	c24.598,19.801,56.699,29.7,97.2,29.7c22.2,0,46.8-2.699,74.099-8.699c6.601-1.5,11.4-7.5,11.7-14.399
	C270.299,430.38,265.498,424.379,258.899,422.579z"/>
<path style="fill:#FD003A;" d="M104.999,331.98c-41.353,0-75-33.647-75-75c0-37.544,53.877-90.615,64.673-100.869
	c5.771-5.508,14.883-5.508,20.654,0c10.796,10.254,64.673,63.326,64.673,100.869C179.999,298.333,146.352,331.98,104.999,331.98z"/>
<circle style="fill:#713708;" cx="104.999" cy="256.98" r="15"/>
<path style="fill:#FE9923;" d="M346.999,240.309c-3.838,0-7.676-1.465-10.605-4.395l-30-30c-5.859-5.859-5.859-15.352,0-21.211
	s15.352-5.859,21.211,0l30,30c5.859,5.859,5.859,15.352,0,21.211C354.675,238.845,350.837,240.309,346.999,240.309z"/>
<g>
	<path style="fill:#FD003A;" d="M269.999,451.98h-15c-8.291,0-15-6.709-15-15v-15c0-17.944,5.42-32.344,16.128-42.803
		c20.79-20.359,65.669-16.611,69.478-12.803c7.824,7.789,7.23,49-12.817,69.492C302.328,446.561,287.929,451.98,269.999,451.98z
		 M269.999,421.98h0.293H269.999z"/>
	<path style="fill:#FD003A;" d="M256.127,494.783c-10.708-10.459-16.128-24.858-16.128-42.803v-15c0-8.291,6.709-15,15-15h15
		c17.93,0,32.329,5.42,42.788,16.113c20.974,21.452,19.975,62.335,12.817,69.492C315.53,517.66,270.925,509.26,256.127,494.783z"/>
</g>
<g>
	<path style="fill:#FCBF29;" d="M186.394,145.915c-7.824-7.789-7.23-49,12.817-69.492c10.459-10.694,24.858-16.114,42.788-16.114h15
		c8.291,0,15,6.709,15,15v15c0,17.944-5.42,32.344-16.128,42.803C235.554,152.982,193.81,153.332,186.394,145.915z"/>
	<path style="fill:#FCBF29;" d="M256.999,90.309h-15c-17.93,0-32.329-5.42-42.788-16.113
		c-20.974-21.452-19.975-62.335-12.817-69.492c7.892-7.892,48.999-7.247,69.478,12.803c10.707,10.459,16.127,24.858,16.127,42.802
		v15C271.999,83.6,265.29,90.309,256.999,90.309z"/>
</g>
<path style="fill:#FE9923;" d="M466.999,240.309c-3.838,0-7.676-1.465-10.605-4.395c-5.859-5.859-5.859-15.352,0-21.211l30-30
	c5.859-5.859,15.352-5.859,21.211,0c5.859,5.859,5.859,15.352,0,21.211l-30,30C474.675,238.845,470.837,240.309,466.999,240.309z"/>
<path style="fill:#FCBF29;" d="M406.999,360.309c-3.721,0-7.441-1.377-10.327-4.131c-10.796-10.253-64.673-63.325-64.673-100.869
	c0-41.353,33.647-75,75-75s75,33.647,75,75c0,37.544-53.877,90.615-64.673,100.869C414.44,358.932,410.72,360.309,406.999,360.309z"
	/>
<circle style="fill:#713708;" cx="406.999" cy="255.31" r="15"/>
<g>
</g>
<g>
</g>
<g>
</g>
<g>
</g>
<g>
</g>
<g>
</g>
<g>
</g>
<g>
</g>
<g>
</g>
<g>
</g>
<g>
</g>
<g>
</g>
<g>
</g>
<g>
</g>
<g>
</g>
</svg>
