<?xml version="1.0" encoding="iso-8859-1"?>
<!-- Generator: Adobe Illustrator 19.0.0, SVG Export Plug-In . SVG Version: 6.00 Build 0)  -->
<svg version="1.1" id="Capa_1" xmlns="http://www.w3.org/2000/svg" xmlns:xlink="http://www.w3.org/1999/xlink" x="0px" y="0px"
	 viewBox="0 0 512.001 512.001" style="enable-background:new 0 0 512.001 512.001;" xml:space="preserve">
<path style="fill:#FD003A;" d="M492.8,257.699c-0.3-3.3-60.596-133.493-62.097-136.494c-11.1-24.599-59.997-59.096-113.694-61.196
	H194.413c-44.397,1.8-84.895,23.098-111.594,58.497c-1.201,1.5-63.297,135.292-63.597,139.193c-4.801,30.6-3.6,61.498,2.999,91.796
	c0.901,3.301,37.498,68.998,39.298,72.298c7.8,50.398,51.899,90.196,103.496,90.196h181.992c51.597,0,95.696-39.798,103.496-90.196
	l37.798-68.398C492.8,345.296,499.401,300.597,492.8,257.699z"/>
<path style="fill:#E50027;" d="M488.303,353.395l-37.798,68.398c-7.8,50.398-51.899,90.196-103.496,90.196h-91.996V60.009h61.997
	c53.697,2.1,102.595,36.597,113.694,61.196c1.501,3.001,61.797,133.194,62.097,136.494
	C499.401,300.597,492.8,345.296,488.303,353.395z"/>
<path style="fill:#32D736;" d="M255.012,0.011c-41.398,0-74.997,33.599-74.997,74.997s33.599,74.997,74.997,74.997
	s76.997-33.599,76.997-74.997S296.41,0.011,255.012,0.011z"/>
<path style="fill:#994C0F;" d="M180.015,434.993V411.82c0-19.772,29.999-19.853,29.999,0v23.173
	C210.014,454.765,180.015,454.846,180.015,434.993z"/>
<path style="fill:#713708;" d="M302.01,434.993V411.82c0-19.772,29.999-19.853,29.999,0v23.173
	C332.008,454.765,302.01,454.846,302.01,434.993z"/>
<path style="fill:#FEA832;" d="M135.017,329.997c-74.44,0-134.994-60.554-134.994-134.994V45.009
	c0-14.759,19.266-20.631,27.494-8.306c25.294,38.072,46.363,83.302,107.5,83.302c57.889,0,104.995,47.107,104.995,104.995
	c0,13.885-5.732,46.622-16.786,54.124c-17.578,11.876-7.294,13.93-16.713,22.792C187.295,320.022,161.91,329.997,135.017,329.997z"
	/>
<path style="fill:#BF6015;" d="M135.017,299.998c-41.365,0-74.997-33.646-74.997-74.997s33.632-74.997,74.997-74.997
	s74.997,33.646,74.997,74.997S176.382,299.998,135.017,299.998z"/>
<path style="fill:#FE9923;" d="M377.006,329.997c-39.445,0-72.473-23.59-75.642-34.936c-4.287-15.283-12.51-11.953-17.46-21.415
	c-7.896-15.102-11.895-31.478-11.895-48.645c0-57.889,47.107-104.995,104.996-104.995c59.711,0,80.619-42.825,107.5-83.302
	C492.636,24.425,512,30.162,512,45.009v149.994C512.001,269.443,451.446,329.997,377.006,329.997z"/>
<path style="fill:#CAE8F9;" d="M267.51,85.507c-2.699,3.001-8.599,4.501-12.498,4.501c-3.9,0-7.8-1.5-10.499-4.501
	c-6-5.7-6-15.299,0-20.999c2.699-2.999,6.599-4.499,10.499-4.499c3.9,0,9.8,1.5,12.498,4.499
	C273.51,70.207,273.51,79.807,267.51,85.507z"/>
<path style="fill:#10BB67;" d="M255.012,150.005V0.011c41.398,0,76.997,33.599,76.997,74.997S296.41,150.005,255.012,150.005z"/>
<path style="fill:#B7E0F6;" d="M267.51,85.507c-2.699,3.001-8.599,4.501-12.498,4.501V60.009c3.9,0,9.8,1.5,12.498,4.499
	C273.51,70.207,273.51,79.807,267.51,85.507z"/>
<path style="fill:#CAE8F9;" d="M509.6,360.895c-7.8-23.698-33.299-36.597-56.697-28.499l-72.598,24
	c-37.798-18.599-82.396-28.199-125.295-28.499h-6c-40.497,0.899-80.997,10.799-117.294,28.499l-72.298-24
	c-23.999-8.099-49.197,4.801-56.997,28.499c-8.101,23.4,4.799,48.898,28.499,56.698l74.396,24.9c21.598,7.2,44.397,5.4,64.197-4.501
	c26.698-13.199,56.098-20.098,85.495-20.098s60.798,6.899,87.495,20.098c19.199,9.6,41.999,12,64.197,4.501l74.396-24.9
	c18.899-6.301,30.9-23.698,30.9-42.297C512.001,370.494,511.1,365.696,509.6,360.895z"/>
<path style="fill:#B7E0F6;" d="M512.001,375.295c0,18.599-12,35.997-30.9,42.297l-74.396,24.9
	c-22.199,7.5-44.998,5.099-64.197-4.501c-26.698-13.199-58.098-20.098-87.495-20.098v-89.996
	c42.898,0.3,87.495,9.901,125.295,28.499l72.598-24c23.398-8.099,48.896,4.801,56.697,28.499
	C511.1,365.696,512.001,370.494,512.001,375.295z"/>
<path style="fill:#994C0F;" d="M377.006,299.998c-41.365,0-74.997-33.646-74.997-74.997s33.632-74.997,74.997-74.997
	s74.997,33.646,74.997,74.997S418.372,299.998,377.006,299.998z"/>
<path style="fill:#B7E0F6;" d="M377.006,270c-24.813,0-44.998-20.185-44.998-44.998s20.185-44.998,44.998-44.998
	s44.998,20.185,44.998,44.998S401.819,270,377.006,270z"/>
<path style="fill:#994C0F;" d="M377.006,240.001c-8.276,0-14.999-6.724-14.999-14.999c0-8.276,6.724-14.999,14.999-14.999
	c8.276,0,14.999,6.724,14.999,14.999C392.006,233.277,385.282,240.001,377.006,240.001z"/>
<path style="fill:#CAE8F9;" d="M135.017,270c-24.813,0-44.998-20.185-44.998-44.998s20.185-44.998,44.998-44.998
	s44.998,20.185,44.998,44.998S159.83,270,135.017,270z"/>
<path style="fill:#BF6015;" d="M135.017,240.001c-8.276,0-14.999-6.724-14.999-14.999c0-8.276,6.724-14.999,14.999-14.999
	s14.999,6.724,14.999,14.999C150.016,233.277,143.292,240.001,135.017,240.001z"/>
<path style="fill:#FEDB41;" d="M305.609,254.399c-13.199-9.3-32.898-13.8-50.598-13.8c-17.7,0-35.398,4.501-48.598,13.8
	c-15.6,10.499-26.399,26.399-26.399,45.599c0,32.998,33.599,59.997,74.997,59.997s76.997-27,76.997-59.997
	C332.008,281.099,321.209,264.899,305.609,254.399z"/>
<path style="fill:#FCBF29;" d="M332.008,299.998c0,32.998-35.598,59.997-76.997,59.997V240.6c17.7,0,37.398,4.501,50.598,13.8
	C321.209,264.899,332.008,281.099,332.008,299.998z"/>
<g>
</g>
<g>
</g>
<g>
</g>
<g>
</g>
<g>
</g>
<g>
</g>
<g>
</g>
<g>
</g>
<g>
</g>
<g>
</g>
<g>
</g>
<g>
</g>
<g>
</g>
<g>
</g>
<g>
</g>
</svg>
